<svg width="518" height="154" viewBox="0 0 518 154" fill="none" xmlns="http://www.w3.org/2000/svg">
<path d="M180.112 3.16162H144.151C143.639 3.16162 143.229 3.56957 143.229 4.0795L146.405 114.021H142.717L133.086 3.97752C133.086 3.56957 132.676 3.16162 132.164 3.16162H76.5323C75.8152 3.16162 75.5078 3.56957 75.5078 4.18149V149.309C75.5078 150.023 75.9176 150.328 76.5323 150.328H112.083C112.596 150.328 113.005 149.921 113.005 149.411L109.829 42.6305H113.518L123.046 149.513C123.046 149.921 123.456 150.328 123.968 150.328H180.214C180.931 150.328 181.239 150.023 181.239 149.309V4.18149C181.136 3.46758 180.727 3.16162 180.112 3.16162Z" fill="black"/>
<path d="M441.468 3.16162H405.61C405.098 3.16162 404.688 3.56957 404.688 4.0795L407.864 114.021H404.175L394.34 3.97752C394.34 3.56957 393.93 3.16162 393.418 3.16162H337.786C337.069 3.16162 336.762 3.56957 336.762 4.18149V149.309C336.762 150.023 337.172 150.328 337.786 150.328H373.337C373.85 150.328 374.259 149.921 374.259 149.411L371.083 42.6305H374.772L383.992 149.513C383.992 149.921 384.402 150.328 384.914 150.328H441.366C442.083 150.328 442.39 150.023 442.39 149.309V4.18149C442.493 3.46758 442.083 3.16162 441.468 3.16162Z" fill="black"/>
<path d="M491.772 34.8795V61.6H515.336C516.053 61.6 516.361 61.906 516.361 62.4159V88.3206C516.361 88.9325 516.053 89.1365 515.336 89.1365H491.772V118.611H516.873C517.59 118.611 517.898 118.917 517.898 119.631V149.309C517.898 150.023 517.59 150.328 516.873 150.328H449.562C448.844 150.328 448.537 150.023 448.537 149.309V4.18149C448.537 3.46758 448.844 3.16162 449.562 3.16162H516.873C517.59 3.16162 517.898 3.46758 517.898 4.18149V33.8596C517.898 34.5735 517.59 34.8795 516.873 34.8795H491.772Z" fill="black"/>
<path d="M287.584 149.309V4.18149C287.584 3.46758 287.891 3.16162 288.609 3.16162H329.692C330.409 3.16162 330.716 3.46758 330.716 4.18149V149.309C330.716 150.023 330.409 150.328 329.692 150.328H288.609C287.891 150.43 287.584 150.023 287.584 149.309Z" fill="#E83F28"/>
<path d="M43.235 34.8795V61.6H66.799C67.5162 61.6 67.8236 61.906 67.8236 62.4159V88.3206C67.8236 88.9325 67.5162 89.1365 66.799 89.1365H43.235V118.611H68.3358C69.053 118.611 69.3604 118.917 69.3604 119.631V149.309C69.3604 150.023 69.053 150.328 68.3358 150.328H1.02453C0.307358 150.328 0 150.023 0 149.309V4.18149C0 3.46758 0.307358 3.16162 1.02453 3.16162H68.3358C69.053 3.16162 69.3604 3.46758 69.3604 4.18149V33.8596C69.3604 34.5735 69.053 34.8795 68.3358 34.8795H43.235Z" fill="black"/>
<path d="M491.772 34.8795V61.6H515.336C516.053 61.6 516.361 61.906 516.361 62.4159V88.3206C516.361 88.9325 516.053 89.1365 515.336 89.1365H491.772V118.611H516.873C517.59 118.611 517.898 118.917 517.898 119.631V149.309C517.898 150.023 517.59 150.328 516.873 150.328H449.562C448.844 150.328 448.537 150.023 448.537 149.309V4.18149C448.537 3.46758 448.844 3.16162 449.562 3.16162H516.873C517.59 3.16162 517.898 3.46758 517.898 4.18149V33.8596C517.898 34.5735 517.59 34.8795 516.873 34.8795H491.772Z" fill="black"/>
<path d="M238.305 57.3166C238.305 58.0305 238.612 58.3364 239.329 58.3364H280.413C281.13 58.3364 281.437 58.0305 281.437 57.3166V34.6755C281.437 26.5166 280.31 20.0914 278.056 15.196C275.802 10.4026 271.294 6.62914 264.43 3.97748C257.668 1.32583 247.628 0 234.309 0C222.22 0 212.691 1.32583 205.827 3.97748C198.963 6.62914 194.148 10.5046 191.381 15.502C188.615 20.6013 187.283 26.9245 187.283 34.6755V127.687C187.283 136.662 189.23 143.291 193.225 147.575C197.119 151.858 203.881 154 213.511 154C221.4 154 227.035 152.572 230.518 149.717C234.002 146.861 236.153 143.189 236.973 138.702H239.124L242.505 149.615C242.505 150.226 243.632 150.43 245.886 150.43H280.515C281.232 150.43 281.54 150.124 281.54 149.411V65.3735C281.54 64.6596 281.232 64.3536 280.515 64.3536H235.538C234.924 64.3536 234.411 64.8636 234.411 65.4755V87.8106C234.411 88.4225 234.924 88.9324 235.538 88.9324H238.407V117.489C238.407 119.63 236.665 121.364 234.514 121.364C232.362 121.364 230.621 119.63 230.621 117.489V33.7576C230.621 31.6159 232.362 29.8821 234.514 29.8821C236.665 29.8821 238.407 31.6159 238.407 33.7576L238.305 57.3166Z" fill="black"/>
</svg>
