<?xml version="1.0" encoding="utf-8"?>
<!-- Generator: Adobe Illustrator 19.2.0, SVG Export Plug-In . SVG Version: 6.00 Build 0)  -->
<svg version="1.1" id="Layer_1" xmlns="http://www.w3.org/2000/svg" xmlns:xlink="http://www.w3.org/1999/xlink" x="0px" y="0px"
	 viewBox="0 0 518 154" style="enable-background:new 0 0 518 154;" xml:space="preserve">
<style type="text/css">
	.st0{fill:#FFFFFF;}
</style>
<path class="st0" d="M180.1,3.2h-36c-0.5,0-0.9,0.4-0.9,0.9l3.2,109.9h-3.7L133.1,4c0-0.4-0.4-0.8-0.9-0.8H76.5c-0.7,0-1,0.4-1,1
	v145.1c0,0.7,0.4,1,1,1h35.6c0.5,0,0.9-0.4,0.9-0.9l-3.2-106.8h3.7l9.5,106.9c0,0.4,0.4,0.8,0.9,0.8h56.2c0.7,0,1-0.3,1-1V4.2
	C181.1,3.5,180.7,3.2,180.1,3.2z"/>
<path class="st0" d="M441.5,3.2h-35.9c-0.5,0-0.9,0.4-0.9,0.9l3.2,109.9h-3.7L394.3,4c0-0.4-0.4-0.8-0.9-0.8h-55.6c-0.7,0-1,0.4-1,1
	v145.1c0,0.7,0.4,1,1,1h35.6c0.5,0,0.9-0.4,0.9-0.9l-3.2-106.8h3.7l9.2,106.9c0,0.4,0.4,0.8,0.9,0.8h56.5c0.7,0,1-0.3,1-1V4.2
	C442.5,3.5,442.1,3.2,441.5,3.2z"/>
<path class="st0" d="M491.8,34.9v26.7h23.6c0.7,0,1,0.3,1,0.8v25.9c0,0.6-0.3,0.8-1,0.8h-23.6v29.5h25.1c0.7,0,1,0.3,1,1v29.7
	c0,0.7-0.3,1-1,1h-67.3c-0.7,0-1-0.3-1-1V4.2c0-0.7,0.3-1,1-1h67.3c0.7,0,1,0.3,1,1v29.7c0,0.7-0.3,1-1,1H491.8z"/>
<path class="st0" d="M287.6,149.3V4.2c0-0.7,0.3-1,1-1h41.1c0.7,0,1,0.3,1,1v145.1c0,0.7-0.3,1-1,1h-41.1
	C287.9,150.4,287.6,150,287.6,149.3z"/>
<path class="st0" d="M43.2,34.9v26.7h23.6c0.7,0,1,0.3,1,0.8v25.9c0,0.6-0.3,0.8-1,0.8H43.2v29.5h25.1c0.7,0,1,0.3,1,1v29.7
	c0,0.7-0.3,1-1,1H1c-0.7,0-1-0.3-1-1V4.2c0-0.7,0.3-1,1-1h67.3c0.7,0,1,0.3,1,1v29.7c0,0.7-0.3,1-1,1H43.2z"/>
<path class="st0" d="M491.8,34.9v26.7h23.6c0.7,0,1,0.3,1,0.8v25.9c0,0.6-0.3,0.8-1,0.8h-23.6v29.5h25.1c0.7,0,1,0.3,1,1v29.7
	c0,0.7-0.3,1-1,1h-67.3c-0.7,0-1-0.3-1-1V4.2c0-0.7,0.3-1,1-1h67.3c0.7,0,1,0.3,1,1v29.7c0,0.7-0.3,1-1,1H491.8z"/>
<path class="st0" d="M238.3,57.3c0,0.7,0.3,1,1,1h41.1c0.7,0,1-0.3,1-1V34.7c0-8.2-1.1-14.6-3.4-19.5c-2.3-4.8-6.8-8.6-13.6-11.2
	c-6.8-2.7-16.8-4-30.1-4c-12.1,0-21.6,1.3-28.5,4c-6.9,2.7-11.7,6.5-14.4,11.5c-2.8,5.1-4.1,11.4-4.1,19.2v93c0,9,1.9,15.6,5.9,19.9
	c3.9,4.3,10.7,6.4,20.3,6.4c7.9,0,13.5-1.4,17-4.3c3.5-2.9,5.6-6.5,6.5-11h2.2l3.4,10.9c0,0.6,1.1,0.8,3.4,0.8h34.6c0.7,0,1-0.3,1-1
	v-84c0-0.7-0.3-1-1-1h-45c-0.6,0-1.1,0.5-1.1,1.1v22.3c0,0.6,0.5,1.1,1.1,1.1h2.9v28.6c0,2.1-1.7,3.9-3.9,3.9
	c-2.2,0-3.9-1.7-3.9-3.9V33.8c0-2.1,1.7-3.9,3.9-3.9c2.2,0,3.9,1.7,3.9,3.9L238.3,57.3z"/>
</svg>
